# xmcd CD database file
#
# Track frame offsets:
#	150
#	32424
#	61424
#	120171
#	161630
#	191665
#	208720
#
# Disc length: 3173 seconds
#
# Revision: 38
# Processed by: cddbd v1.5.2PL0 Copyright (c) Steve Scherf et al.
# Submitted via: CdAid (MTCDDB.DLL V2003.12.21)
#
DISCID=560c6307
DTITLE=Eric Clapton - 24 Nights [CD 2)
DYEAR=1991
DGENRE=Rock
TTITLE0=Pretending (Live 18/2/1991, At Royal Albert Hall, London, England)
TTITLE1=Bad love (Live 18/2/1991, At Royal Albert Hall, London, England)
TTITLE2=Old love (Live 18/2/1991, At Royal Albert Hall, London, England)
TTITLE3=Wonderful tonight (Live 18/2/1991, At Royal Albert Hall, London, Engla
TTITLE3=nd)
TTITLE4=Bell bottom blues (Live 9/2/1990, At Royal Albert Hall, London, Englan
TTITLE4=d)
TTITLE5=Hard times (Live 9/2/1990, At Royal Albert Hall, London, England)
TTITLE6=Edge of darkness (Live 8/3/1991, At Royal Albert Hall, London, England
TTITLE6=)
EXTD=This is an all live recording. No overdubs or fixes\n\nRecorded live at t
EXTD=he Royal Albert Hall, London, 1990 and 1991 YEAR: 1991 ID3G:  17
EXTT0=(9 piece band)
EXTT1=(9 piece band)
EXTT2=(9 piece band)
EXTT3=(9 piece band)
EXTT4=(9 piece band)
EXTT5=(also National Philharmonic Orchestra directed by Nichael Kamen)
EXTT6=(also National Philharmonic Orchestra directed by Nichael Kamen)
PLAYORDER=
